<svg width="20" height="21" viewBox="0 0 20 21" fill="none" xmlns="http://www.w3.org/2000/svg">
<path d="M12.1503 12.4163C12.295 12.2717 12.5195 12.2556 12.6819 12.3681L12.7396 12.4163L16.4061 16.0828C16.5688 16.2455 16.5688 16.5093 16.4061 16.672C16.2614 16.8167 16.0369 16.8328 15.8745 16.7203L15.8168 16.672L12.1503 13.0056C11.9876 12.8428 11.9876 12.579 12.1503 12.4163Z" fill="#2649B6"/>
<path fill-rule="evenodd" clip-rule="evenodd" d="M12.3971 5.59191C10.4445 3.63929 7.27868 3.63929 5.32606 5.59191C3.37344 7.54453 3.37344 10.7104 5.32606 12.663C7.27868 14.6156 10.4445 14.6156 12.3971 12.663C14.3498 10.7104 14.3498 7.54453 12.3971 5.59191ZM5.91532 12.0737C4.28813 10.4465 4.28813 7.80835 5.91532 6.18116C7.5425 4.55398 10.1807 4.55398 11.8079 6.18116C13.4351 7.80835 13.4351 10.4465 11.8079 12.0737C10.1807 13.7009 7.5425 13.7009 5.91532 12.0737Z" fill="#2649B6"/>
</svg>
