<?xml version="1.0" encoding="UTF-8"?>
<svg width="19px" height="16px" viewBox="0 0 19 16" version="1.1" xmlns="http://www.w3.org/2000/svg" xmlns:xlink="http://www.w3.org/1999/xlink">
    <title>A) Icon / 01-General / 36-Camara</title>
    <g id="Mockups" stroke="none" stroke-width="1" fill="none" fill-rule="evenodd">
        <g id="Etiquetado-1-Copy-4" transform="translate(-248.000000, -363.000000)" fill="#2649B6">
            <g id="A)-Icon-/-01-General-/-36-Camara" transform="translate(245.000000, 359.000000)">
                <path d="M15.564245,13.3259999 C15.564245,15.0735384 14.1896943,16.495145 12.5,16.495145 C10.8103057,16.495145 9.4362802,15.0735384 9.4362802,13.3259999 C9.4362802,11.5784613 10.8103057,10.1568548 12.5,10.1568548 C14.1896943,10.1568548 15.564245,11.5790045 15.564245,13.3259999 Z M22,8.82596591 L22,17.8271203 C22,19.0270931 21.0592967,20 19.8990435,20 L5.10095649,20 C3.94070327,20 3,19.0270931 3,17.8271203 L3,8.82596591 C3,7.62599307 3.94070327,6.65308617 5.10095649,6.65308617 L7.68513297,6.65308617 L7.68513297,5.90126978 C7.68513297,4.85122564 8.50765743,4 9.5234699,4 L15.4765301,4 C16.4923426,4 17.314867,4.85122564 17.314867,5.90126978 L17.314867,6.65254295 L19.8990435,6.65254295 C21.0592967,6.65308617 22,7.62599307 22,8.82596591 Z M17.1399624,13.3259999 C17.1399624,10.6799756 15.0584398,8.52719495 12.5,8.52719495 C9.94208548,8.52719495 7.86056284,10.6799756 7.86056284,13.3259999 C7.86056284,15.9720242 9.94208548,18.1248048 12.5,18.1248048 C15.0584398,18.1248048 17.1399624,15.9720242 17.1399624,13.3259999 Z" id="Shape"></path>
            </g>
        </g>
    </g>
</svg>