<svg width="18" height="18" viewBox="0 0 18 18" fill="none" xmlns="http://www.w3.org/2000/svg">
<path fill-rule="evenodd" clip-rule="evenodd" d="M17.3337 9.00001C17.3337 4.39763 13.6027 0.666672 9.00033 0.666672C4.39795 0.666672 0.666992 4.39763 0.666992 9.00001C0.666992 13.6024 4.39795 17.3333 9.00033 17.3333C13.6027 17.3333 17.3337 13.6024 17.3337 9.00001ZM1.75033 9C1.75033 4.99594 4.99626 1.75 9.00033 1.75C13.0044 1.75 16.2503 4.99594 16.2503 9C16.2503 13.0041 13.0044 16.25 9.00033 16.25C4.99626 16.25 1.75033 13.0041 1.75033 9Z" fill="#2A5AED"/>
<mask id="path-2-inside-1_492_4458" fill="white">
<path fill-rule="evenodd" clip-rule="evenodd" d="M4.8966 9.83204C4.69321 9.62865 4.69321 9.29887 4.89661 9.09548C5.1 8.89208 5.42978 8.89208 5.63317 9.09548L7.84288 11.3052C8.04628 11.5086 8.04628 11.8384 7.84288 12.0418C7.63949 12.2452 7.30971 12.2452 7.10631 12.0418L4.8966 9.83204Z"/>
</mask>
<path fill-rule="evenodd" clip-rule="evenodd" d="M4.8966 9.83204C4.69321 9.62865 4.69321 9.29887 4.89661 9.09548C5.1 8.89208 5.42978 8.89208 5.63317 9.09548L7.84288 11.3052C8.04628 11.5086 8.04628 11.8384 7.84288 12.0418C7.63949 12.2452 7.30971 12.2452 7.10631 12.0418L4.8966 9.83204Z" fill="#2A5AED"/>
<path d="M4.71394 10.0147L6.92365 12.2244L8.76212 10.3859L6.55241 8.17624L4.71394 10.0147ZM8.02555 11.1225L5.81584 8.91281L3.97737 10.7513L6.18708 12.961L8.02555 11.1225ZM6.92365 11.1225C7.22793 10.8182 7.72127 10.8182 8.02555 11.1225L6.18708 12.961C6.89816 13.6721 8.05104 13.6721 8.76212 12.961L6.92365 11.1225ZM6.92365 12.2244C6.61936 11.9201 6.61936 11.4268 6.92365 11.1225L8.76212 12.961C9.4732 12.2499 9.4732 11.097 8.76212 10.3859L6.92365 12.2244ZM5.81584 10.0147C5.51156 10.319 5.01822 10.319 4.71394 10.0147L6.55241 8.17624C5.84133 7.46516 4.68845 7.46516 3.97737 8.17624L5.81584 10.0147ZM3.97737 8.17624C3.26629 8.88732 3.26629 10.0402 3.97737 10.7513L5.81584 8.91281C6.12013 9.21709 6.12013 9.71043 5.81584 10.0147L3.97737 8.17624Z" fill="#2A5AED" mask="url(#path-2-inside-1_492_4458)"/>
<mask id="path-4-inside-2_492_4458" fill="white">
<path fill-rule="evenodd" clip-rule="evenodd" d="M12.4784 5.88112C12.6818 5.67772 13.0116 5.67772 13.215 5.88112C13.4184 6.08452 13.4184 6.41429 13.215 6.61769L8.05898 11.7737C7.85558 11.9771 7.52581 11.9771 7.32241 11.7737C7.11901 11.5703 7.11901 11.2405 7.32241 11.0371L12.4784 5.88112Z"/>
</mask>
<path fill-rule="evenodd" clip-rule="evenodd" d="M12.4784 5.88112C12.6818 5.67772 13.0116 5.67772 13.215 5.88112C13.4184 6.08452 13.4184 6.41429 13.215 6.61769L8.05898 11.7737C7.85558 11.9771 7.52581 11.9771 7.32241 11.7737C7.11901 11.5703 7.11901 11.2405 7.32241 11.0371L12.4784 5.88112Z" fill="#2A5AED"/>
<path d="M12.2957 5.69845L7.13974 10.8544L8.97822 12.6929L14.1342 7.53693L12.2957 5.69845ZM8.24165 11.9563L13.3976 6.80036L11.5592 4.96188L6.40317 10.1179L8.24165 11.9563ZM8.24165 10.8544C8.54593 11.1587 8.54593 11.6521 8.24165 11.9563L6.40317 10.1179C5.69209 10.8289 5.69209 11.9818 6.40317 12.6929L8.24165 10.8544ZM7.13974 10.8544C7.44402 10.5501 7.93737 10.5502 8.24165 10.8544L6.40317 12.6929C7.11425 13.404 8.26713 13.404 8.97822 12.6929L7.13974 10.8544ZM12.2957 6.80036C11.9914 6.49607 11.9914 6.00273 12.2957 5.69845L14.1342 7.53693C14.8453 6.82585 14.8453 5.67296 14.1342 4.96188L12.2957 6.80036ZM14.1342 4.96188C13.4231 4.2508 12.2702 4.2508 11.5592 4.96188L13.3976 6.80036C13.0933 7.10464 12.6 7.10464 12.2957 6.80036L14.1342 4.96188Z" fill="#2A5AED" mask="url(#path-4-inside-2_492_4458)"/>
</svg>
