<svg width="20" height="21" viewBox="0 0 20 21" fill="none" xmlns="http://www.w3.org/2000/svg">
<path fill-rule="evenodd" clip-rule="evenodd" d="M4.54398 2.21191C4.27079 2.21191 4.04794 2.38939 4.04794 2.60874C4.04794 2.82808 4.27079 3.00556 4.54398 3.00556H15.4567C15.7318 3.00556 15.9527 2.82808 15.9527 2.60874C15.9527 2.38939 15.7318 2.21191 15.4567 2.21191H4.54398ZM16.2503 3.79922H3.75033L1.66699 7.76747H18.3337L16.2503 3.79922ZM1.66699 9.07699C1.66699 10.0372 2.33229 10.8372 3.22949 11.0679V17.8468H2.18783C1.90094 17.8468 1.66699 18.0776 1.66699 18.3627C1.66699 18.6479 1.90098 18.8786 2.18783 18.8786H17.8128C18.1017 18.8786 18.3337 18.6479 18.3337 18.3627C18.3337 18.0776 18.1017 17.8468 17.8128 17.8468H16.7712V11.0679C17.6684 10.8372 18.3337 10.0372 18.3337 9.07699V8.56112H1.66699V9.07699ZM12.0837 11.1405C13.2352 11.1405 14.167 10.2166 14.167 9.07699C14.167 10.0372 14.8323 10.8372 15.7295 11.0679V17.8468H7.91699V11.1405C9.06852 11.1405 10.0003 10.2166 10.0003 9.07699C10.0003 10.2166 10.9342 11.1405 12.0837 11.1405ZM7.39616 17.8468V11.0679C6.49896 10.8372 5.83366 10.0372 5.83366 9.07699C5.83366 10.0372 5.16839 10.8372 4.27116 11.0679V17.8468H7.39616Z" fill="#2649B6"/>
</svg>
